/* XPM */
static char * hide_pressed_xpm[] = {
"34 24 66 1",
" 	c None",
".	c #030303",
"+	c #B0B0B0",
"@	c #565656",
"#	c #545454",
"$	c #959393",
"%	c #515151",
"&	c #0E0E0E",
"*	c #000000",
"=	c #4F4F4F",
"-	c #04358B",
";	c #022D7C",
">	c #022D7E",
",	c #4C4C4C",
"'	c #043F9D",
")	c #021E49",
"!	c #021E4C",
"~	c #494949",
"{	c #075BC1",
"]	c #053065",
"^	c #063369",
"/	c #063269",
"(	c #474747",
"_	c #0E79CD",
":	c #0A437E",
"<	c #0B4783",
"[	c #0A4682",
"}	c #444444",
"|	c #1288D4",
"1	c #0D4D89",
"2	c #0E528E",
"3	c #0E518E",
"4	c #424242",
"5	c #1493D9",
"6	c #0F5391",
"7	c #115A97",
"8	c #404040",
"9	c #169DDD",
"0	c #105998",
"a	c #135F9E",
"b	c #FFFFFF",
"c	c #050505",
"d	c #022185",
"e	c #011343",
"f	c #011348",
"g	c #288AC2",
"h	c #040404",
"i	c #022491",
"j	c #011549",
"k	c #01154F",
"l	c #329CD7",
"m	c #022BA5",
"n	c #011A54",
"o	c #011A59",
"p	c #0235BE",
"q	c #021E60",
"r	c #021E67",
"s	c #0443CD",
"t	c #032874",
"u	c #03287C",
"v	c #0871F8",
"w	c #087BFF",
"x	c #0885FF",
"y	c #0D0D0D",
"z	c #0A0A0A",
"A	c #7C7C7C",
"..................................",
"++++++++++++++++++++++++++++++++++",
"@@@@@@@@@@@@@@@@@@@@@@@@@@@@@@@@@@",
"##$$$$$$$$$$$$$$$$$$$$$$$$$$$$$$$$",
"%%$&******************************",
"==$*-;;>;;;;;;;;;;;;;;;;;;;;;;;;;-",
",,$*')!)!!!!!!!!!!!!!!!!!!!!!!!!)'",
"~~$*{]^/^^^^^^^^^^^^^^^^^^^^^^^^]{",
"(($*_:<[<<<<<<<<<<<<<<<<<<<<<<<<:_",
"}}$*|1232222222222222222222222221|",
"44$*567777777777777777777777777765",
"88$*90aaaaaaaabbbbbbbbbbaaaaaaaa09",
"cc#*deffffffffggggggggggffffffffed",
"hh#*ijkkkkkkkkllllllllllkkkkkkkkji",
"hh#*mnoooooooooooooooooooooooooonm",
"hh#*pqrrrrrrrrrrrrrrrrrrrrrrrrrrqp",
"hh#*stuuuuuuuuuuuuuuuuuuuuuuuuuuts",
"hh#*vvwxwwwwwwwwwwwwwwwwwwwwwwwwvv",
"hh#c******************************",
"hh################################",
"hhyzzzzzzzzzzzzzzzzzzzzzzzzzzzzzzz",
"hhhhhhhhhhhhhhhhhhhhhhhhhhhhhhhhhh",
"AAAAAAAAAAAAAAAAAAAAAAAAAAAAAAAAAA",
".................................."};
