/* XPM */
static char * hide_inactive_xpm[] = {
"34 24 33 1",
" 	c #030303",
".	c #B0B0B0",
"+	c #565656",
"@	c #545454",
"#	c #959393",
"$	c #515151",
"%	c #0E0E0E",
"&	c #000000",
"*	c #4F4F4F",
"=	c #767676",
"-	c #4C4C4C",
";	c #717171",
">	c #494949",
",	c #6E6E6E",
"'	c #474747",
")	c #6A6A6A",
"!	c #444444",
"~	c #666666",
"{	c #424242",
"]	c #626262",
"^	c #404040",
"/	c #606060",
"(	c #F2F2F2",
"_	c #050505",
":	c #191919",
"<	c #111111",
"[	c #C3C3C3",
"}	c #040404",
"|	c #181818",
"1	c #101010",
"2	c #C2C2C2",
"3	c #0D0D0D",
"4	c #0A0A0A",
"                                  ",
"..................................",
"++++++++++++++++++++++++++++++++++",
"@@################################",
"$$#%&&&&&&&&&&&&&&&&&&&&&&&&&&&&&&",
"**#&==============================",
"--#&;----------------------------;",
">>#&,>>>>>>>>>>>>>>>>>>>>>>>>>>>>,",
"''#&)'''''''''''''''''''''''''''')",
"!!#&~!!!!!!!!!!!!!!!!!!!!!!!!!!!!~",
"{{#&]{{{{{{{{{{{{{{{{{{{{{{{{{{{{]",
"^^#&/^^^^^^^^^((((((((((^^^^^^^^^/",
"__@&:<<<<<<<<<[[[[[[[[[[<<<<<<<<<:",
"}}@&|1111111112222222222111111111|",
"}}@&|1111111111111111111111111111|",
"}}@&|1111111111111111111111111111|",
"}}@&|1111111111111111111111111111|",
"}}@&||||||||||||||||||||||||||||||",
"}}@_&&&&&&&&&&&&&&&&&&&&&&&&&&&&&&",
"}}@@@@@@@@@@@@@@@@@@@@@@@@@@@@@@@@",
"}}34444444444444444444444444444444",
"}}}}}}}}}}}}}}}}}}}}}}}}}}}}}}}}}}",
"{{{{{{{{{{{{{{{{{{{{{{{{{{{{{{{{{{",
"                                  "};
