/* XPM */
static char * hide_active_xpm[] = {
"34 24 46 1",
" 	c None",
".	c #030303",
"+	c #B0B0B0",
"@	c #565656",
"#	c #545454",
"$	c #959393",
"%	c #515151",
"&	c #0E0E0E",
"*	c #000000",
"=	c #4F4F4F",
"-	c #1FA8E2",
";	c #4C4C4C",
">	c #1EA6E0",
",	c #1968A5",
"'	c #494949",
")	c #1CA5DF",
"!	c #1866A3",
"~	c #474747",
"{	c #1AA2DE",
"]	c #1664A0",
"^	c #444444",
"/	c #199FDC",
"(	c #16629F",
"_	c #424242",
":	c #1664A1",
"<	c #404040",
"[	c #1CA8E3",
"}	c #186AAA",
"|	c #FFFFFF",
"1	c #050505",
"2	c #0448C2",
"3	c #032C70",
"4	c #D8FFFF",
"5	c #040404",
"6	c #0450C9",
"7	c #04317A",
"8	c #055DD3",
"9	c #053A8B",
"0	c #0771E1",
"a	c #0646A2",
"b	c #0B91F8",
"c	c #0959C7",
"d	c #11B8FF",
"e	c #0D0D0D",
"f	c #0A0A0A",
"g	c #7C7C7C",
"..................................",
"++++++++++++++++++++++++++++++++++",
"@@@@@@@@@@@@@@@@@@@@@@@@@@@@@@@@@@",
"##$$$$$$$$$$$$$$$$$$$$$$$$$$$$$$$$",
"%%$&******************************",
"==$*------------------------------",
";;$*>,,,,,,,,,,,,,,,,,,,,,,,,,,,,>",
"''$*)!!!!!!!!!!!!!!!!!!!!!!!!!!!!)",
"~~$*{]]]]]]]]]]]]]]]]]]]]]]]]]]]]{",
"^^$*/((((((((((((((((((((((((((((/",
"__$*{::::::::::::::::::::::::::::{",
"<<$*[}}}}}}}}}||||||||||}}}}}}}}}[",
"11#*233333333344444444443333333332",
"55#*6777777777||||||||||7777777776",
"55#*899999999999999999999999999998",
"55#*0aaaaaaaaaaaaaaaaaaaaaaaaaaaa0",
"55#*bccccccccccccccccccccccccccccb",
"55#*dddddddddddddddddddddddddddddd",
"55#1******************************",
"55################################",
"55efffffffffffffffffffffffffffffff",
"5555555555555555555555555555555555",
"gggggggggggggggggggggggggggggggggg",
".................................."};
